<?xml version="1.0" encoding="UTF-8"?>
<!DOCTYPE svg PUBLIC "-//W3C//DTD SVG 1.1//EN" "http://www.w3.org/Graphics/SVG/1.1/DTD/svg11.dtd">
<!-- Creator: CorelDRAW -->
<svg xmlns="http://www.w3.org/2000/svg" xml:space="preserve" width="2048px" height="2048px" style="shape-rendering:geometricPrecision; text-rendering:geometricPrecision; image-rendering:optimizeQuality; fill-rule:evenodd; clip-rule:evenodd"
viewBox="0 0 2048 2048"
 xmlns:xlink="http://www.w3.org/1999/xlink">
 <defs>
  <style type="text/css">
   <![CDATA[
    .fil2 {fill:none}
    .fil3 {fill:#5C6BC0}
    .fil1 {fill:#5D4037}
    .fil4 {fill:#7986CB}
    .fil0 {fill:#8D6E63}
    .fil7 {fill:#CA2B03}
    .fil8 {fill:#DD2C00}
    .fil9 {fill:#CFCFCF;fill-rule:nonzero}
    .fil6 {fill:#E6E6E5;fill-rule:nonzero}
    .fil5 {fill:#FFFFFE;fill-rule:nonzero}
   ]]>
  </style>
   <clipPath id="id0">
    <path d="M1024 -0.0011811c565.541,0 1024,458.461 1024,1024 0,565.541 -458.461,1024 -1024,1024 -565.541,0 -1024,-458.461 -1024,-1024 0,-565.541 458.461,-1024 1024,-1024z"/>
   </clipPath>
 </defs>
 <g id="Layer_x0020_1">
  <metadata id="CorelCorpID_0Corel-Layer"/>
  <path class="fil0" d="M1024 -0.0011811c565.541,0 1024,458.461 1024,1024 0,565.541 -458.461,1024 -1024,1024 -565.541,0 -1024,-458.461 -1024,-1024 0,-565.541 458.461,-1024 1024,-1024z"/>
  <g style="clip-path:url(#id0)">
   <g id="_517155064">
    <g>
     <path id="_5279059761" class="fil1" d="M2696.37 2695.91l0 0zm-1135.88 -1135.88l0 0z"/>
     <polygon id="_527906048" class="fil1" points="1537.63,533.892 2673.52,1669.77 2677.2,1674.41 2680.72,1679.15 2684.08,1683.98 2687.28,1688.91 2690.31,1693.93 2693.18,1699.04 2695.89,1704.23 2698.44,1709.5 2700.82,1714.86 2703.05,1720.29 2705.11,1725.79 2707.01,1731.37 2708.76,1737.01 2710.34,1742.72 2711.77,1748.49 2713.04,1754.32 2714.14,1760.21 2715.1,1766.14 2715.89,1772.13 2716.53,1778.17 2717.01,1784.25 2717.33,1790.37 2717.5,1796.53 2717.51,1802.72 2717.37,1808.95 2717.07,1815.21 2716.62,1821.49 2716.01,1827.8 2715.25,1834.13 1579.37,698.245 1580.13,691.916 1580.74,685.609 1581.19,679.325 1581.49,673.068 1581.63,666.84 1581.62,660.645 1581.45,654.486 1581.12,648.364 1580.64,642.285 1580.01,636.25 1579.21,630.262 1578.26,624.323 1577.15,618.439 1575.89,612.609 1574.46,606.839 1572.88,601.131 1571.13,595.487 1569.23,589.911 1567.16,584.408 1564.94,578.976 1562.55,573.621 1560.01,568.346 1557.3,563.154 1554.43,558.045 1551.4,553.027 1548.2,548.098 1544.84,543.265 1541.32,538.529 "/>
     <polygon id="_527908112" class="fil1" points="1579.37,698.245 2715.25,1834.13 2714.74,1837.83 2714.17,1841.53 2713.56,1845.24 2712.88,1848.96 2712.16,1852.68 2711.39,1856.4 2710.56,1860.13 2709.68,1863.86 2708.75,1867.59 2707.77,1871.32 2706.73,1875.05 2705.65,1878.78 2704.51,1882.5 2703.32,1886.23 2702.08,1889.96 2700.79,1893.68 2699.45,1897.4 2698.05,1901.11 2696.61,1904.82 2695.11,1908.52 2693.57,1912.22 2691.97,1915.91 2690.32,1919.59 2688.62,1923.27 2686.88,1926.94 2685.08,1930.6 2683.23,1934.24 2681.33,1937.88 2679.38,1941.51 2677.38,1945.12 2675.33,1948.73 2673.23,1952.32 1537.35,816.435 1539.45,812.845 1541.5,809.242 1543.5,805.627 1545.45,802 1547.35,798.362 1549.2,794.714 1551,791.055 1552.74,787.387 1554.44,783.712 1556.09,780.028 1557.69,776.337 1559.23,772.64 1560.73,768.936 1562.17,765.227 1563.57,761.513 1564.91,757.795 1566.2,754.073 1567.44,750.349 1568.63,746.621 1569.77,742.893 1570.85,739.164 1571.89,735.434 1572.87,731.704 1573.8,727.974 1574.68,724.247 1575.51,720.521 1576.28,716.799 1577,713.078 1577.67,709.362 1578.29,705.651 1578.86,701.945 "/>
     <polygon id="_527907968" class="fil1" points="735.964,551.168 1871.85,1687.05 1775.25,1600.37 639.367,464.49 "/>
     <polygon id="_527907560" class="fil1" points="1537.35,816.435 2673.23,1952.32 2675.62,1958.34 2677.95,1964.41 2680.21,1970.5 2682.4,1976.63 2684.52,1982.79 2686.57,1988.98 2688.55,1995.21 2690.46,2001.47 2692.29,2007.76 2694.05,2014.08 2695.74,2020.43 2697.36,2026.81 2698.9,2033.22 2700.36,2039.65 2701.75,2046.12 2703.07,2052.61 2704.31,2059.13 2705.47,2065.68 2706.56,2072.25 2707.57,2078.85 2708.5,2085.48 2709.35,2092.13 2710.12,2098.8 2710.82,2105.5 2711.43,2112.22 2711.97,2118.96 2712.42,2125.73 2712.79,2132.52 2713.08,2139.33 2713.29,2146.16 2713.41,2153.01 2713.45,2159.88 2713.34,2171.44 2712.98,2182.93 2712.4,2194.37 2711.58,2205.74 2710.54,2217.05 2709.27,2228.29 2707.78,2239.47 2706.06,2250.57 2704.13,2261.6 2701.98,2272.55 2699.62,2283.42 2697.04,2294.22 2694.26,2304.93 2691.27,2315.55 2688.07,2326.09 2684.67,2336.54 2681.07,2346.89 2677.27,2357.15 2673.28,2367.32 2669.09,2377.38 2664.71,2387.35 2660.15,2397.21 2655.39,2406.96 2650.45,2416.61 2645.33,2426.15 2640.03,2435.57 2634.55,2444.88 2628.9,2454.07 2623.08,2463.14 2617.08,2472.09 2610.91,2480.91 2604.58,2489.61 1468.7,1353.73 1475.03,1345.03 1481.2,1336.21 1487.19,1327.26 1493.02,1318.19 1498.67,1308.99 1504.15,1299.69 1509.45,1290.26 1514.57,1280.73 1519.51,1271.08 1524.26,1261.32 1528.83,1251.47 1533.21,1241.5 1537.4,1231.43 1541.39,1221.27 1545.19,1211.01 1548.79,1200.65 1552.19,1190.21 1555.39,1179.67 1558.38,1169.04 1561.16,1158.33 1563.74,1147.54 1566.1,1136.67 1568.25,1125.72 1570.18,1114.69 1571.89,1103.59 1573.39,1092.41 1574.66,1081.17 1575.7,1069.86 1576.52,1058.49 1577.1,1047.05 1577.46,1035.55 1577.57,1024 1577.53,1017.13 1577.41,1010.28 1577.2,1003.45 1576.91,996.636 1576.54,989.847 1576.08,983.081 1575.55,976.338 1574.94,969.616 1574.24,962.918 1573.47,956.245 1572.62,949.595 1571.69,942.97 1570.68,936.37 1569.59,929.798 1568.43,923.251 1567.19,916.73 1565.87,910.236 1564.48,903.771 1563.02,897.334 1561.47,890.925 1559.86,884.546 1558.17,878.196 1556.41,871.876 1554.58,865.587 1552.67,859.329 1550.69,853.103 1548.64,846.909 1546.52,840.747 1544.33,834.618 1542.07,828.523 1539.74,822.462 "/>
     <polygon id="_527907632" class="fil1" points="1561.31,1446.33 2697.19,2582.22 2697.2,2582.23 1561.32,1446.35 "/>
     <polygon id="_527907776" class="fil1" points="1561.34,1446.37 2697.22,2582.25 2697.24,2582.26 1561.35,1446.38 "/>
     <polygon id="_527908040" class="fil1" points="1561.37,1446.4 2697.25,2582.28 2697.27,2582.3 1561.39,1446.41 "/>
     <polygon id="_527907872" class="fil1" points="1561.77,1446.8 2697.65,2582.69 2697.84,2582.87 2698.02,2583.06 2698.2,2583.25 2698.38,2583.44 2698.56,2583.63 2698.74,2583.82 1562.86,1447.94 1562.68,1447.75 1562.5,1447.56 1562.32,1447.37 1562.14,1447.18 1561.95,1446.99 "/>
     <polygon id="_527908712" class="fil1" points="1562.86,1447.94 2698.74,2583.82 2699.58,2584.72 2700.39,2585.63 2701.19,2586.55 2701.97,2587.48 2702.74,2588.43 2703.49,2589.38 2704.22,2590.34 2704.94,2591.31 2705.64,2592.3 2706.32,2593.29 2706.99,2594.29 2707.64,2595.3 2708.27,2596.32 2708.88,2597.35 2709.48,2598.38 2710.07,2599.43 1574.18,1463.55 1573.6,1462.5 1573,1461.47 1572.39,1460.44 1571.75,1459.42 1571.1,1458.41 1570.44,1457.41 1569.76,1456.41 1569.06,1455.43 1568.34,1454.46 1567.61,1453.5 1566.86,1452.54 1566.09,1451.6 1565.31,1450.67 1564.51,1449.75 1563.69,1448.84 "/>
     <polygon id="_527908472" class="fil1" points="1574.18,1463.55 2710.07,2599.43 2710.68,2600.58 2711.28,2601.74 2711.85,2602.91 2712.4,2604.08 2712.94,2605.27 2713.45,2606.46 2713.94,2607.65 2714.41,2608.86 2714.87,2610.07 2715.3,2611.28 2715.71,2612.51 2716.1,2613.73 2716.47,2614.97 2716.82,2616.21 2717.15,2617.45 2717.47,2618.69 2717.76,2619.95 2718.03,2621.2 2718.29,2622.46 2718.52,2623.72 2718.74,2624.99 2718.93,2626.26 2719.11,2627.53 2719.27,2628.8 2719.41,2630.08 2719.53,2631.36 2719.63,2632.64 2719.71,2633.92 2719.77,2635.2 2719.82,2636.48 2719.85,2637.76 2719.86,2639.05 2719.86,2639.4 2719.85,2639.75 2719.85,2640.1 2719.84,2640.45 2719.84,2640.81 2719.83,2641.16 2719.82,2641.51 2719.81,2641.86 1583.93,1505.98 1583.94,1505.63 1583.95,1505.27 1583.96,1504.92 1583.96,1504.57 1583.97,1504.22 1583.97,1503.87 1583.97,1503.51 1583.98,1503.16 1583.97,1501.88 1583.94,1500.6 1583.89,1499.31 1583.83,1498.03 1583.75,1496.75 1583.64,1495.47 1583.52,1494.2 1583.38,1492.92 1583.23,1491.65 1583.05,1490.38 1582.85,1489.11 1582.64,1487.84 1582.4,1486.58 1582.15,1485.32 1581.88,1484.06 1581.58,1482.81 1581.27,1481.57 1580.94,1480.32 1580.59,1479.08 1580.22,1477.85 1579.83,1476.62 1579.41,1475.4 1578.98,1474.19 1578.53,1472.98 1578.06,1471.77 1577.57,1470.57 1577.06,1469.38 1576.52,1468.2 1575.97,1467.02 1575.39,1465.86 1574.8,1464.7 "/>
     <polygon id="_527908808" class="fil1" points="1583.93,1505.98 2719.81,2641.86 2719.71,2643.67 2719.58,2645.48 2719.4,2647.28 2719.19,2649.08 2718.94,2650.88 2718.65,2652.67 2718.32,2654.46 2717.94,2656.24 2717.54,2658.01 2717.09,2659.78 2716.6,2661.53 2716.07,2663.28 2715.5,2665.02 2714.9,2666.74 2714.25,2668.46 2713.57,2670.16 2712.84,2671.85 2712.08,2673.52 2711.28,2675.18 2710.43,2676.82 2709.55,2678.45 2708.63,2680.06 2707.67,2681.65 2706.67,2683.22 2705.63,2684.77 2704.55,2686.3 2703.43,2687.81 2702.27,2689.3 2701.07,2690.77 2699.83,2692.21 2698.56,2693.62 2697.24,2695.02 1561.36,1559.13 1562.68,1557.74 1563.95,1556.32 1565.19,1554.88 1566.39,1553.42 1567.55,1551.93 1568.67,1550.42 1569.75,1548.89 1570.79,1547.34 1571.79,1545.76 1572.75,1544.17 1573.67,1542.56 1574.55,1540.94 1575.39,1539.3 1576.2,1537.64 1576.96,1535.96 1577.69,1534.28 1578.37,1532.57 1579.02,1530.86 1579.62,1529.13 1580.19,1527.4 1580.72,1525.65 1581.21,1523.89 1581.65,1522.13 1582.06,1520.36 1582.43,1518.58 1582.76,1516.79 1583.06,1515 1583.31,1513.2 1583.52,1511.4 1583.7,1509.59 1583.83,1507.79 "/>
     <polygon id="_527908160" class="fil1" points="1561.36,1559.13 2697.24,2695.02 2697.23,2695.02 2697.23,2695.03 2697.22,2695.04 2697.21,2695.05 2697.21,2695.06 2697.2,2695.06 2697.19,2695.07 2697.18,2695.08 1561.3,1559.19 1561.31,1559.19 1561.32,1559.18 1561.33,1559.17 1561.33,1559.17 1561.34,1559.16 1561.35,1559.15 1561.35,1559.14 "/>
     <polygon id="_527908856" class="fil1" points="471.296,644.911 1607.18,1780.79 1608.08,1781.76 472.198,645.876 "/>
     <polygon id="_527908232" class="fil1" points="472.198,645.876 1608.08,1781.76 1687.28,1871.47 551.398,735.589 "/>
     <polygon id="_527908208" class="fil1" points="691.842,1466.89 1827.72,2602.77 1737.67,2693.58 601.784,1557.7 "/>
     <polygon id="_527908640" class="fil1" points="601.784,1557.7 1737.67,2693.58 1736.16,2695.06 1734.62,2696.48 1733.05,2697.86 1731.46,2699.2 1729.84,2700.48 1728.19,2701.71 1726.52,2702.9 1724.83,2704.04 1723.11,2705.14 1721.37,2706.18 1719.61,2707.18 1717.82,2708.12 1716.02,2709.03 1714.2,2709.88 1712.37,2710.68 1710.52,2711.44 1708.65,2712.15 1706.77,2712.81 1704.88,2713.43 1702.97,2713.99 1701.05,2714.51 1699.12,2714.98 1697.19,2715.4 1695.24,2715.78 1693.29,2716.11 1691.33,2716.39 1689.36,2716.62 1687.39,2716.8 1685.42,2716.93 1683.45,2717.02 1681.47,2717.06 1679.5,2717.05 543.615,1581.17 545.591,1581.18 547.567,1581.14 549.541,1581.05 551.514,1580.92 553.483,1580.73 555.447,1580.5 557.406,1580.22 559.359,1579.9 561.304,1579.52 563.242,1579.1 565.17,1578.63 567.088,1578.11 568.994,1577.55 570.889,1576.93 572.769,1576.27 574.636,1575.56 576.488,1574.8 578.324,1574 580.143,1573.14 581.943,1572.24 583.725,1571.29 585.486,1570.3 587.227,1569.25 588.945,1568.16 590.64,1567.02 592.311,1565.83 593.959,1564.6 595.58,1563.31 597.173,1561.98 598.739,1560.6 600.277,1559.18 "/>
     <polygon id="_527908304" class="fil1" points="543.615,1581.17 1679.5,2717.05 1677.59,2717.06 1675.68,2717.02 1673.77,2716.93 1671.86,2716.8 1669.96,2716.62 1668.06,2716.4 1666.17,2716.13 1664.28,2715.81 1662.4,2715.45 1660.53,2715.04 1658.66,2714.58 1656.81,2714.08 1654.96,2713.53 1653.13,2712.94 1651.31,2712.3 1649.5,2711.61 1647.71,2710.88 1645.93,2710.1 1644.17,2709.27 1642.43,2708.4 1640.7,2707.48 1639,2706.51 1637.31,2705.5 1635.64,2704.45 1634,2703.34 1632.38,2702.19 1630.78,2701 1629.21,2699.75 493.324,1563.87 494.898,1565.11 496.496,1566.31 498.117,1567.46 499.761,1568.56 501.428,1569.62 503.115,1570.63 504.821,1571.6 506.547,1572.52 508.291,1573.39 510.052,1574.21 511.829,1575 513.622,1575.73 515.429,1576.42 517.249,1577.06 519.081,1577.65 520.926,1578.2 522.78,1578.7 524.645,1579.16 526.518,1579.57 528.398,1579.93 530.287,1580.25 532.18,1580.52 534.078,1580.74 535.981,1580.92 537.887,1581.05 539.796,1581.14 541.705,1581.18 "/>
     <polygon id="_527908424" class="fil1" points="1355.15,1467.64 2491.03,2603.52 2482.31,2609.91 2473.46,2616.14 2464.48,2622.19 2455.38,2628.07 2446.16,2633.78 2436.82,2639.31 2427.37,2644.66 2417.79,2649.83 2408.11,2654.82 2398.32,2659.62 2388.42,2664.23 2378.41,2668.65 2368.31,2672.88 2358.1,2676.91 2347.79,2680.75 2337.39,2684.38 2326.9,2687.82 2316.31,2691.05 2305.64,2694.07 2294.88,2696.88 2284.04,2699.48 2273.11,2701.87 2262.11,2704.04 2251.02,2705.99 2239.87,2707.72 2228.64,2709.23 2217.34,2710.51 2205.97,2711.57 2194.54,2712.39 2183.05,2712.98 2171.49,2713.34 2159.88,2713.46 2148.22,2713.34 2136.63,2712.98 2125.09,2712.38 2113.62,2711.55 2102.22,2710.49 2090.88,2709.2 2079.61,2707.68 2068.41,2705.94 2057.3,2703.97 2046.25,2701.78 2035.29,2699.38 2024.41,2696.76 2013.62,2693.93 2002.91,2690.89 1992.29,2687.63 1981.76,2684.18 1971.33,2680.52 1960.99,2676.66 1950.76,2672.59 1940.62,2668.34 1930.59,2663.89 1920.66,2659.24 1910.84,2654.41 1901.13,2649.39 1891.53,2644.18 1882.05,2638.8 1872.69,2633.23 1863.45,2627.48 1854.33,2621.56 1845.33,2615.47 1836.46,2609.21 1827.72,2602.77 691.842,1466.89 700.581,1473.32 709.45,1479.59 718.446,1485.68 727.567,1491.6 736.809,1497.35 746.173,1502.91 755.652,1508.3 765.249,1513.51 774.957,1518.53 784.776,1523.36 794.704,1528 804.736,1532.45 814.874,1536.71 825.112,1540.77 835.447,1544.64 845.881,1548.3 856.409,1551.75 867.027,1555 877.735,1558.05 888.53,1560.88 899.41,1563.5 910.372,1565.9 921.414,1568.09 932.533,1570.05 943.727,1571.8 954.995,1573.32 966.334,1574.61 977.74,1575.67 989.212,1576.5 1000.75,1577.1 1012.34,1577.45 1024,1577.57 1035.61,1577.46 1047.17,1577.1 1058.66,1576.51 1070.09,1575.68 1081.46,1574.63 1092.76,1573.35 1103.99,1571.84 1115.14,1570.11 1126.22,1568.16 1137.23,1565.98 1148.15,1563.6 1159,1561 1169.76,1558.18 1180.43,1555.16 1191.02,1551.93 1201.51,1548.5 1211.91,1544.87 1222.22,1541.03 1232.43,1537 1242.53,1532.77 1252.54,1528.35 1262.44,1523.74 1272.23,1518.93 1281.91,1513.95 1291.48,1508.78 1300.94,1503.43 1310.28,1497.9 1319.5,1492.19 1328.6,1486.31 1337.58,1480.26 1346.43,1474.03 "/>
     <polygon id="_527908544" class="fil1" points="1561.3,1559.19 2697.18,2695.08 2697.08,2695.18 2696.98,2695.29 2696.88,2695.39 2696.78,2695.49 2696.68,2695.6 2696.58,2695.7 2696.47,2695.8 2696.37,2695.91 2693.37,2698.75 2690.27,2701.42 2687.06,2703.9 2683.76,2706.19 2680.37,2708.3 2676.9,2710.23 2673.36,2711.97 2669.76,2713.53 2666.09,2714.9 2662.38,2716.09 2658.62,2717.1 2654.82,2717.93 2651,2718.57 2647.15,2719.02 2643.3,2719.3 2639.43,2719.39 2635.57,2719.29 2631.71,2719.02 2627.87,2718.56 2624.05,2717.91 2620.26,2717.09 2616.51,2716.07 2612.8,2714.88 2609.15,2713.51 2605.55,2711.95 2602.02,2710.2 2598.56,2708.28 2595.19,2706.17 2591.9,2703.88 2588.71,2701.4 2585.63,2698.75 2582.65,2695.91 1446.77,1560.02 1449.75,1562.86 1452.83,1565.52 1456.02,1568 1459.31,1570.29 1462.68,1572.4 1466.14,1574.32 1469.67,1576.06 1473.26,1577.62 1476.92,1579 1480.63,1580.19 1484.38,1581.2 1488.17,1582.03 1491.99,1582.67 1495.83,1583.13 1499.69,1583.41 1503.55,1583.5 1507.41,1583.41 1511.27,1583.14 1515.12,1582.68 1518.94,1582.04 1522.74,1581.22 1526.49,1580.21 1530.21,1579.02 1533.88,1577.65 1537.48,1576.09 1541.02,1574.34 1544.49,1572.42 1547.88,1570.31 1551.18,1568.01 1554.39,1565.53 1557.49,1562.87 1560.49,1560.03 1560.59,1559.92 1560.7,1559.82 1560.8,1559.72 1560.9,1559.61 1561,1559.51 1561.1,1559.4 1561.2,1559.3 "/>
     <polygon id="_527909024" class="fil1" points="1561.28,1446.3 2697.16,2582.18 2697.17,2582.2 1561.29,1446.32 "/>
    </g>
    <path id="_517155568" class="fil1" d="M1560.49 1560.02l0 0zm-212.537 -1093.2c67.6028,-8.91615 132.156,8.30906 177.633,53.7851 45.476,45.4772 62.7,110.03 53.7851,177.633 -5.2004,39.4382 -19.3595,79.9654 -42.0272,118.191 25.9429,64.0997 40.2284,134.164 40.2284,207.565 0,123.54 -40.4681,237.627 -108.871,329.73l92.5725 92.5725c0.0425197,0.0425197 0.0850394,0.0850394 0.126378,0.127559 0.494882,0.496063 0.981497,0.999213 1.45984,1.50709 4.48583,4.76575 8.26064,10.0193 11.3221,15.6083 6.68032,12.241 9.79135,25.9335 9.79135,39.6177 0,0.938977 -0.0165354,1.87795 -0.0484252,2.81575 -0.811418,19.2957 -8.30906,38.4437 -22.5673,53.1556 -0.0153543,0.0236221 -0.034252,0.0437008 -0.0590552,0.0590552 -0.264567,0.281103 -0.53504,0.5563 -0.811418,0.832678 -31.3453,31.3453 -82.5851,31.2638 -113.72,-0.0011811l-91.6158 -92.3824c-92.3493,69.0461 -206.977,109.932 -331.154,109.932 -124.626,0 -239.635,-41.1839 -332.157,-110.684l-90.0579 90.8103c-15.9165,15.9827 -37.0878,23.8158 -58.1693,23.4673 -20.3681,0.323622 -40.8402,-7.25434 -56.3185,-22.7327 -15.7347,-15.7347 -23.2819,-36.9461 -22.7421,-57.8256 0,-0.00590552 0,-0.011811 0,-0.0165354 -0.111024,-20.739 7.49292,-41.3847 22.7232,-56.615l91.265 -91.265c-67.9465,-91.9253 -108.118,-205.629 -108.118,-328.714 0,-95.9363 24.404,-186.173 67.343,-264.84l-73.7682 -119.302c3.04252,1.35236 5.84882,3.3626 8.19922,6.01772l79.2001 89.7131c12.8398,-20.9953 27.039,-41.0681 42.4748,-60.0957l-76.9867 -86.9552 85.878 76.2709c18.274,-21.4099 38.1532,-41.4107 59.4485,-59.8146l-81.7678 -87.0674 92.7178 77.8477c19.8307,-16.2662 40.8118,-31.1823 62.8016,-44.6067l-96.5977 -86.6776 119.112 73.6501c78.8268,-43.1693 169.308,-67.715 265.52,-67.715 72.3024,0 141.369,13.8614 204.683,39.0721 38.5418,-23.0445 79.4623,-37.4221 119.273,-42.6709z"/>
   </g>
  </g>
  <path class="fil2" d="M1024 -0.0011811c565.541,0 1024,458.461 1024,1024 0,565.541 -458.461,1024 -1024,1024 -565.541,0 -1024,-458.461 -1024,-1024 0,-565.541 458.461,-1024 1024,-1024z"/>
  <circle class="fil3" cx="1024" cy="1024" r="553.575"/>
  <circle class="fil4" cx="1024" cy="1024" r="338.051"/>
  <path class="fil5" d="M1103.03 906.308c9.10394,-9.10394 23.8642,-8.34449 32.967,0.758268 9.10276,9.10276 9.10276,23.863 0,32.9658l-141.208 141.207c-88.5048,88.5048 -17.6043,94.4729 -125.14,202.697l-272.223 274.501 -0.0011811 0c-15.1606,15.1606 -35.1213,22.7421 -55.0642,22.7421 -19.9441,0 -39.9048,-7.5815 -55.0642,-22.741l-0.0011811 -0.0011811 -0.0011811 -0.0011811c-15.1606,-15.1606 -22.7421,-35.1213 -22.7421,-55.0654 0,-19.9441 6.82205,-39.9048 21.9827,-55.0654l275.639 -275.639c114.96,-114.96 106.61,-31.3536 204.963,-129.705l135.894 -136.654z"/>
  <path class="fil5" d="M1525.59 520.611c-45.4772,-45.476 -110.03,-62.7012 -177.633,-53.7851 -65.4697,8.63268 -133.943,41.9528 -189.898,97.9076l-0.00236221 0.00236221c-55.9548,55.9559 -89.2737,124.428 -97.9064,189.897 -8.91615,67.6028 8.30788,132.155 53.7851,177.631l0 0.0011811c45.4772,45.476 110.03,62.7012 177.633,53.7863 65.4697,-8.63386 133.942,-41.9528 189.898,-97.9087 55.9559,-55.9559 89.2749,-124.428 97.9087,-189.898 8.91497,-67.6028 -8.30906,-132.156 -53.7851,-177.633z"/>
  <path class="fil6" d="M1516.53 529.668c-36.0981,-36.0981 -87.339,-49.7705 -141,-42.6933 -51.9674,6.85276 -106.319,33.3012 -150.735,77.7166l-0.0011811 0.0011811c-44.4154,44.4166 -70.8638,98.7674 -77.7166,150.735 -7.07599,53.6611 6.59528,104.901 42.6933,140.998l0.0011811 0.0011811c36.0981,36.0981 87.339,49.7705 140.999,42.6933 51.9685,-6.85276 106.319,-33.3 150.736,-77.7166 44.4154,-44.4154 70.8638,-98.7674 77.7166,-150.735 7.07599,-53.6622 -6.59528,-104.902 -42.6933,-141z"/>
  <path class="fil7" d="M968.475 1075.65l17.8536 18.0508c-51.0674,65.5028 -5.33032,81.8091 -103.446,180.553l-281.099 283.451c-31.1351,31.2638 -82.3749,31.3453 -113.723,-0.0011811 -0.274016,-0.274016 -0.539764,-0.552756 -0.807875,-0.830316l481.222 -481.223z"/>
  <path class="fil8" d="M949.231 1056.19l18.8587 19.0677 0.38504 0.390945 -481.222 481.223 -0.0590552 -0.0590552c-30.3343,-31.3004 -30.0697,-82.6784 0.0838583,-112.832l284.626 -284.626c103.393,-103.393 110.191,-51.2398 177.327,-103.165z"/>
  <path class="fil9" d="M1489.82 566.783c2.07166,2.07166 2.07166,5.43071 0,7.50237 -2.07047,2.07047 -5.43071,2.07047 -7.50119,0 -14.1047,-14.1059 -31.1256,-23.9173 -49.8603,-29.589 -19.6122,-5.93741 -41.0989,-7.36772 -63.1028,-4.46693 -21.4323,2.82638 -43.4008,9.7878 -64.5815,20.7083 -20.413,10.5248 -40.0926,24.7465 -57.854,42.5067 -2.07047,2.07047 -5.43071,2.07047 -7.50119,0 -2.07047,-2.07047 -2.07047,-5.43071 0,-7.50119 18.5162,-18.5162 39.1004,-33.378 60.5056,-44.4142 22.2555,-11.4744 45.4087,-18.7984 68.0646,-21.7854 23.5229,-3.1004 46.5189,-1.56496 67.5367,4.79882 20.3823,6.17126 38.915,16.8614 54.2941,32.2406z"/>
  <path class="fil5" d="M463.999 639.858c3.04252,1.35236 5.84882,3.3626 8.19922,6.01772l170.555 193.195c2.55945,2.89961 5.7815,6.28701 9.62953,10.1362 52.8993,54.3532 125.6,28.5343 173.718,-22.0843l0.259843 -0.272835 0.271654 -0.258662c50.6185,-48.1181 76.4375,-120.819 22.0843,-173.718 -3.84922,-3.84803 -7.23662,-7.07008 -10.1362,-9.62953l-199.213 -178.754 230.998 142.832c5.0563,4.46575 9.17599,8.29489 12.3933,11.511 41.4638,41.465 56.6233,84.8457 53.8784,126.847 -2.68937,41.1284 15.7169,155.855 41.7851,211.74 -3.69095,4.18229 -7.08426,7.86615 -10.1835,11.0681l-0.11811 0.122835 -0.122835 0.11811c-3.20197,3.09921 -6.88583,6.49252 -11.0681,10.1835 -55.8851,-26.0681 -170.612,-44.4744 -211.74,-41.7851 -42.0012,2.74488 -85.382,-12.4146 -126.847,-53.8784l-11.511 -12.3933 -142.832 -230.998z"/>
  <path class="fil5" d="M516.886 588.538l266.32 300.8c9.39922,9.39922 24.6414,9.39922 34.0406,0 9.39922,-9.39922 9.39922,-24.6414 0,-34.0406l-300.36 -266.759z"/>
  <path class="fil5" d="M580.445 517.927l278.074 296.098c9.4004,9.39922 24.6414,9.39922 34.0418,0 9.39922,-9.4004 9.39922,-24.6414 0,-34.0418l-312.116 -262.056z"/>
  <path class="fil5" d="M972.871 936.589c-9.4004,-9.39922 -13.2791,1.96299 -22.6784,11.3622 -9.4004,9.4004 -20.7626,14.0634 -11.3622,23.4626l97.6194 95.8548c91.3902,91.3902 18.1784,97.552 129.22,209.306l281.099 283.451 0.0011811 0c15.6543,15.6555 36.2658,23.4839 56.8595,23.4839 20.5949,0 41.2051,-7.82835 56.8595,-23.4827l0.0011811 -0.0011811 0.0011811 -0.0011811c15.6555,-15.6543 23.4839,-36.2658 23.4839,-56.8607 0,-20.5949 -7.04528,-41.2051 -22.6996,-56.8607l-284.626 -284.626c-118.708,-118.708 -110.086,-32.3752 -211.644,-133.934l-92.1343 -91.154z"/>
  <path class="fil7" d="M1080.08 1077.97l-17.8524 18.0508c51.0662,65.5028 5.33032,81.8091 103.445,180.553l281.099 283.451c31.1351,31.2638 82.376,31.3453 113.723,-0.0011811 0.274016,-0.274016 0.540945,-0.552756 0.809056,-0.830316l-481.223 -481.223z"/>
  <path class="fil8" d="M1099.32 1058.51l-18.8575 19.0677 -0.386221 0.390945 481.223 481.223 0.0590552 -0.0590552c30.3331,-31.3004 30.0685,-82.6784 -0.0838583,-112.832l-284.626 -284.626c-103.393,-103.393 -110.192,-51.2398 -177.328,-103.165z"/>
 </g>
</svg>
